<svg xmlns="http://www.w3.org/2000/svg" viewBox="0 0 500 120" role="img" aria-label="علينا 3layna"><title>علينا 3layna</title><path fill="#211B16" d="M0 0L10 0L10 90.8L20 90.8L20 50L30 50L30 90.8L40 90.8L40 50L50 50L50 90.8L60 90.8L60 0L70 0L70 90.8L80 90.8L80 50L120 50L120 59.2L90 59.2L90 90.8L120 90.8L120 100L0 100ZM210 50L220 50L220 90.8L260 90.8L260 100L210 100ZM270 50L320 50L320 100L310 100L310 79.6L280 79.6L280 100L270 100ZM280 59.2L280 70.4L310 70.4L310 59.2ZM330 50L340 50L340 70.4L370 70.4L370 50L380 50L380 79.6L360 79.6L360 100L350 100L350 79.6L330 79.6ZM390 50L400 50L400 100L390 100ZM430 50L440 50L440 100L430 100ZM390 50L402.5 50L440 100L427.5 100ZM450 50L500 50L500 100L490 100L490 79.6L460 79.6L460 100L450 100ZM460 59.2L460 70.4L490 70.4L490 59.2Z"/><path fill="#C9414B" d="M20 30L30 30L30 40L20 40ZM30 110L40 110L40 120L30 120ZM50 110L60 110L60 120L50 120ZM150 50L200 50L200 100L150 100L150 90.8L190 90.8L190 79.6L170 79.6L170 70.4L190 70.4L190 59.2L150 59.2Z"/></svg>
